<svg version="1.2" xmlns="http://www.w3.org/2000/svg" viewBox="0 0 512 512" width="512" height="512">
	<style>
		.s0 { fill: #fbfffc } 
		.s1 { fill: #26a651 } 
	</style>
	<path id="Shape 1" fill-rule="evenodd" class="s0" d="m512 0v512h-512v-512z"/>
	<g id="Layer 1">
		<path class="s1" d="m180.02 65.23q2.14-0.01 4.28-0.02 5.79-0.02 11.59-0.02 3.63-0.01 7.25-0.01 12.7-0.03 25.39-0.03 11.78-0.01 23.55-0.06 10.15-0.03 20.31-0.03 6.04 0 12.09-0.03 5.69-0.03 11.39-0.01 2.07 0 4.15-0.02c12.16-0.09 24.6 1.49 35.55 7.17q0.84 0.42 1.7 0.85c4.56 2.33 8.71 5.01 12.64 8.31 0.92 0.76 0.92 0.76 1.85 1.55 15.48 13.47 24.6 30.73 27.01 51.11 0.18 3.23 0.18 6.45 0.16 9.68q0 1.37 0 2.77 0 3.72-0.02 7.44-0.01 3.91-0.01 7.81-0.01 7.38-0.03 14.75-0.02 8.41-0.03 16.81-0.02 17.27-0.07 34.53-1.56-0.34-3.11-0.69-0.87-0.19-1.75-0.39-1.9-0.42-3.8-0.84-3.09-0.69-6.18-1.37-1.06-0.24-2.16-0.48-1.05-0.23-2.12-0.47-0.93-0.2-1.89-0.42c-4.55-0.85-8.99-1.22-13.61-1.25q-0.8-0.01-1.61-0.02c-16.28-0.19-16.28-0.19-32.31 2.33-0.88 0.21-0.88 0.21-1.78 0.42-23.2 5.66-43.14 16.99-60.27 33.49q-0.81 0.74-1.64 1.5c-17.05 16.09-27.64 38.75-32.99 61.26q-0.19 0.78-0.39 1.58c-3.75 15.96-3.56 35.92 0.39 51.81q0.22 0.9 0.45 1.83c5.2 20.69 14.5 40.58 29.46 56.05 1.11 1.28 1.11 1.28 1.11 2.73q-15.04 0.1-30.08 0.15-6.99 0.02-13.98 0.06-6.76 0.05-13.51 0.06-2.57 0.01-5.13 0.03c-24.12 0.21-43.02-6.32-60.76-23.21-14.58-14.99-21.08-34.9-21.02-55.5q0-1.41-0.01-2.87-0.01-3.91 0-7.81 0-4.23-0.01-8.46-0.01-8.27-0.01-16.54 0-6.72 0-13.45 0-0.96 0-1.94 0-1.95-0.01-3.9-0.01-18.27 0-36.53 0.01-16.68-0.02-33.36-0.02-17.16-0.01-34.31 0-9.62-0.01-19.24-0.02-8.19 0-16.38 0-4.17-0.01-8.35c-0.07-23.78 3.14-45.15 19.76-63.32q0.82-0.9 1.66-1.83c10.1-10.65 23.07-17.77 37.3-21.25q0.64-0.18 1.31-0.37c6.57-1.59 13.28-1.3 19.99-1.3zm-21.73 71.58c-3.32 4.94-3.98 10.05-3.18 15.94 1.6 4.99 4.45 9.15 8.66 12.27 6.02 3.09 11.94 3.3 18.58 3.26q1.57 0 3.14 0.01 4.23 0.02 8.47 0 4.45-0.01 8.9 0 7.47 0.01 14.94-0.01 8.61-0.02 17.22 0 7.42 0.02 14.84 0.01 4.42-0.01 8.84 0.01 4.16 0.01 8.31-0.02 1.52 0 3.04 0.01c7.09 0.04 12.93-0.87 19.12-4.45 4.97-5.39 6.95-10.76 6.87-18-0.58-5.91-3.57-9.91-7.99-13.67-5.66-3.69-10.79-3.55-17.41-3.53q-1.63-0.01-3.27-0.02-4.43-0.02-8.86-0.02-3.7 0-7.41-0.01-8.75-0.02-17.49-0.01-9.01 0.01-18.01-0.04-7.75-0.03-15.5-0.02-4.62 0-9.24-0.02-4.35-0.03-8.7 0-1.59 0-3.17-0.02c-8.65-0.07-15.16 1.32-20.7 8.33zm0.43 65.72c-3.33 5.33-4.28 10.35-3.61 16.6 2.26 6.8 6.71 11.18 12.99 14.43 2.15 0.65 4.11 0.82 6.35 0.85q1.03 0.01 2.08 0.02 1.11 0.01 2.24 0.02c1.15 0.01 1.15 0.01 2.32 0.02q2.43 0.01 4.86 0.02 2.47 0.01 4.95 0.04 3.59 0.05 7.17 0.05 1.09 0.02 2.21 0.04c6.93-0.02 12.01-2.19 17.08-6.88 3.74-4.2 5.12-9.21 5.05-14.74-0.52-4.62-2.6-9.43-5.97-12.63-4.19-2.82-7.76-5.12-12.9-5.18q-1.07-0.01-2.17-0.03-1.16-0.01-2.34-0.01-1.2-0.01-2.42-0.02-2.54-0.02-5.08-0.02-3.86-0.03-7.72-0.08-2.47-0.01-4.94-0.02-1.14-0.02-2.32-0.04c-7.07 0.02-13.07 2.14-17.83 7.56z"/>
		<path class="s1" d="m336.7 260.03c1.23 0 1.23 0 2.48 0.01 6.66 0.09 12.94 0.67 19.39 2.37q0.76 0.21 1.55 0.42c22.77 6.3 41.64 20.99 53.4 41.45 3.7 6.68 6.49 13.54 8.54 20.9q0.34 1.21 0.69 2.46c3.34 14.19 2.92 31.25-1.42 45.16q-0.23 0.74-0.46 1.51c-3.65 11.31-9.27 21.13-16.85 30.23q-0.76 0.94-1.55 1.91c-13.44 15.84-33.66 25.46-54 28.4-25.02 1.38-48.5-3.12-68-19.84-14.83-13.49-24.66-29.13-29.4-48.7q-0.29-1.15-0.58-2.34c-2.6-13.14-1.46-27.39 2.02-40.23q0.19-0.72 0.39-1.47c5.88-21.62 21.6-39.99 40.73-51.2 13.25-7.37 27.91-11.12 43.07-11.04zm14.41 59.48q-0.95 0.95-1.92 1.93-2.52 2.52-5.02 5.05-2.57 2.59-5.14 5.17-5.03 5.05-10.04 10.12c-2.83-1.3-4.46-2.99-6.59-5.28-5.02-5.15-9.2-7.84-16.5-8.16-5.95 0.24-10.56 2.01-14.7 6.36-3.47 4.55-5.33 9.67-5.05 15.42 1.27 8.2 7.82 13.74 13.39 19.38q0.71 0.72 1.44 1.46 1.5 1.51 3 3.01 1.52 1.54 3.03 3.08 2.21 2.25 4.43 4.49 0.66 0.68 1.35 1.38c4.35 4.33 8.87 6.87 15.05 7.27 7.57-0.3 12.88-4.38 18.03-9.53q0.65-0.65 1.33-1.32 2.16-2.14 4.32-4.3 1.5-1.5 3.01-3 3.16-3.14 6.31-6.3 4.03-4.02 8.07-8.02 3.12-3.1 6.23-6.21 1.48-1.48 2.97-2.96 2.09-2.07 4.16-4.16 0.61-0.59 1.24-1.21c4.17-4.24 6.82-9.18 7.03-15.2-0.09-5.52-2.36-10.66-6.13-14.68-12.32-10.37-23.65-3.55-33.3 6.21z"/>
	</g>
</svg>