<svg version="1.2" xmlns="http://www.w3.org/2000/svg" viewBox="0 0 512 512" width="512" height="512">
	<style>
		.s0 { fill: #ffffff } 
		.s1 { fill: #26a651 } 
	</style>
	<path id="Shape 1" fill-rule="evenodd" class="s0" d="m512 0v512h-512v-512z"/>
	<g id="Layer 1">
		<path class="s1" d="m271.81 85.65q1.2 0.01 2.44 0.02c6.29 0.14 11.5 0.99 17.31 3.54q1.04 0.44 2.12 0.88c13.61 6.18 22.16 17.61 27.69 31.08 1.41 4.4 1.69 8.72 1.77 13.31q0.01 0.82 0.03 1.67c-0.02 2.45-0.21 4.16-1.4 6.33-1.34 1.27-1.34 1.27-3.75 2.07 0.34 6.95 2.72 11.82 6.32 17.7 1.3 3.4 1.17 6.1 0.1 9.57-1.67 3-3.42 5.74-6.56 7.28q-0.72 0.36-1.46 0.74-0.15 0.99-0.3 2.01c-1.11 6.2-4.85 10.99-9.87 14.63-2.66 1.44-5.43 2.39-8.28 3.42 8.29 12.67 8.29 12.67 21.16 19.8 4.84 0.57 9.34 0.26 14.13-0.56 8.41-0.41 14.11 1.35 20.86 6.42q0.89 0.67 1.81 1.36 0.69 0.51 1.39 1.05 0.23-0.97 0.46-1.96c3.13-7.76 9.18-12.87 16.53-16.57 4.97-1.96 10.65-2.42 15.9-1.52 2.42 1.79 3.13 2.75 3.61 5.76q0.01 1.51 0.01 3.06c0.01 0.84 0.01 0.84 0.02 1.69q0.01 2.76-0.01 5.53 0.01 1.92 0.01 3.84 0.01 4.03-0.01 8.06-0.03 5.16 0.01 10.33 0.01 3.97 0 7.94-0.01 1.9 0 3.81 0.01 2.66-0.02 5.32 0 1.5-0.01 3.05c-0.48 3.02-1.18 3.98-3.61 5.77-2.45 0.37-2.45 0.37-5.16 0.3-1.34-0.02-1.34-0.02-2.71-0.03-2.5-0.26-4.27-0.9-6.57-1.87q0.34 0.74 0.68 1.5c7.55 16.75 14.7 33.67 21.78 50.63q1.45 0.14 2.95 0.29 1.95 0.2 3.9 0.41 0.96 0.09 1.94 0.19c12.08 1.28 23.28 6.87 31.57 15.86 9.41 11.82 14.17 24.51 13.2 39.79-1.56 13.61-7.37 26.95-18.27 35.69-14.09 10.17-28.05 12.95-45.17 10.92-2.18-0.52-4.1-1.21-6.16-2.09-0.72-0.3-0.72-0.3-1.45-0.6-14.67-6.24-23.52-15.7-29.8-30.43-1.17-3.73-1.74-7.63-2.44-11.48-31.76 0-63.52 0-96.24 0-0.53 2.91-1.06 5.82-1.61 8.82-3.93 12.63-12.71 23.24-24 30.05-14.48 7.24-29.79 7.88-44.97 2.83-7.91-2.95-13.42-7.73-19.25-13.63q-0.73-0.7-1.48-1.42c-6.2-6.48-11.36-17.69-11.36-26.65q-0.99 0.02-2.01 0.05-4.51 0.09-9.01 0.15-1.56 0.04-3.17 0.08-1.5 0.02-3.04 0.03-1.38 0.03-2.8 0.05c-2.42-0.36-2.42-0.36-4.33-1.75-1.48-2.06-1.71-3.01-1.7-5.51q0-1.07-0.01-2.17 0.03-1.14 0.06-2.31 0.02-1.18 0.03-2.4c0.46-18.12 5.35-38.34 16.47-52.97 0.64-0.86 0.64-0.86 1.3-1.73q0.49-0.64 1-1.3-0.66 0-1.33-0.01-6.87-0.05-13.74-0.16-2.56-0.03-5.12-0.05-3.69-0.03-7.38-0.09-1.13 0-2.3-0.01c-6.05-0.13-10.25-1.63-14.85-5.6-2.99-3.49-5.08-6.03-5.5-10.69q-0.09-0.96-0.19-1.95-0.06-0.74-0.12-1.49-1.28 0.02-2.6 0.05-4.78 0.08-9.56 0.12-2.07 0.03-4.14 0.07-2.97 0.05-5.95 0.07c-0.92 0.03-0.92 0.03-1.86 0.05-2.87 0-4.45-0.12-6.76-1.88-1.32-1.83-1.65-2.68-1.62-4.9-0.01-0.79-0.01-0.79-0.02-1.6 0.64-2.43 1.64-3.29 3.63-4.81 2.32-0.28 4.32-0.38 6.63-0.32q0.95 0.01 1.93 0.02 3.04 0.03 6.08 0.1 2.06 0.02 4.13 0.04 5.05 0.06 10.11 0.16c0-4.24 0-8.47 0-12.84q-1.68 0.06-3.4 0.12-2.21 0.04-4.42 0.08-1.11 0.04-2.24 0.09c-5.45 0.07-5.45 0.07-8.08-1.7-1.16-1.87-1.55-2.82-1.51-5q-0.02-0.79-0.03-1.61c0.67-2.51 1.5-3.27 3.64-4.81 2.86-0.49 5.71-0.45 8.62-0.43q1.25 0 2.55-0.01 2.67 0 5.34 0.02 4.09 0.02 8.17-0.02 2.6 0 5.19 0.01 1.22-0.01 2.47-0.02c5.64 0.08 5.64 0.08 8.27 1.98 1.18 1.81 1.53 2.75 1.49 4.89 0.02 0.79 0.02 0.79 0.03 1.6-0.64 2.39-1.67 3.34-3.64 4.81-3.26 0.43-6.32 0.15-9.62 0 0 4.24 0 8.47 0 12.84q1.67-0.06 3.4-0.12 2.21-0.04 4.42-0.08 1.1-0.04 2.24-0.09c5.45-0.08 5.45-0.08 8.07 1.7 1.17 1.87 1.55 2.82 1.52 5 0.01 0.8 0.01 0.8 0.02 1.61-0.66 2.51-1.47 3.33-3.63 4.81-2.62 0.39-5.18 0.3-7.82 0.2q-1.06-0.02-2.16-0.04-2.63-0.06-5.26-0.16c1.2 2.52 1.89 3.78 4.49 4.93 3.16 0.79 6.14 0.91 9.37 0.9q0.97 0.01 1.97 0.02 3.2 0.01 6.4 0 2.24 0.01 4.47 0.01 4.68 0.01 9.36 0.01 5.98-0.01 11.97 0.02 4.61 0.02 9.23 0.01 2.2 0 4.41 0.02 3.09 0.01 6.18-0.01 0.9 0.01 1.82 0.02c4.06-0.04 7.01-0.62 10.54-2.72 1.61-3.2 1.8-6.14 1.82-9.69q0.01-1.41 0.02-2.86 0-1.51 0-3.06c0.01-1.58 0.01-1.58 0.01-3.18q0.01-3.32 0-6.64 0-4.24 0.03-8.47 0.02-4.07 0.01-8.13c0.01-1.52 0.01-1.52 0.02-3.06-0.02-5.05-0.07-9.07-2.72-13.46-3.42-1.76-6.91-1.89-10.72-2.11q-2.66-0.15-5.32-0.3 0.03 0.99 0.05 2.01 0.1 4.51 0.15 9.02c0.04 1.57 0.04 1.57 0.09 3.16q0.01 1.5 0.03 3.04 0.02 1.38 0.05 2.8c-0.45 2.95-1.24 3.85-3.58 5.64-2.17 0.72-3.46 0.91-5.69 0.93q-0.98 0.01-2 0.02c-1.06 0.01-1.06 0.01-2.15 0.01q-1.09 0.01-2.22 0.02-2.32 0.01-4.65 0.01-3.55 0.02-7.1 0.06-2.26 0.01-4.52 0.01-1.05 0.02-2.14 0.03c-4.07-0.01-6.91-0.4-10.43-2.7-1.11-2.22-0.89-4.02-0.88-6.5 0-1.45 0-1.45 0.01-2.94 0.01-1.53 0.01-1.53 0.02-3.09q0-1.53 0.01-3.11 0.01-3.81 0.04-7.62c-9.6-0.52-9.6-0.52-17.9 3.21-0.57 0.65-0.57 0.65-1.16 1.3-0.99 1.11-0.99 1.11-3.1 1.91-2.42 0-3.81-0.39-5.91-1.6-1.97-2.3-2.39-3.65-2.56-6.67 1.62-5.03 5.17-8.22 9.8-10.65 3.66-1.51 7.17-1.48 11.08-1.46q1.15 0 2.34-0.01 3.82-0.02 7.63-0.01 2.66 0 5.33-0.01 5.57-0.01 11.14 0 7.13 0.01 14.26-0.03 5.5-0.02 10.99-0.01 2.63 0 5.26-0.01 3.68-0.02 7.36 0.01c1.07-0.02 1.07-0.02 2.17-0.03 5.94 0.07 9.78 2 14.65 5.24q0.1-0.96 0.2-1.95c3.1-14.73 14.23-30.83 26.49-39.21 4.83-3.05 9.73-5.61 15.02-7.76q-1.16-1.04-2.36-2.11c-11.1-11.24-14.8-23.9-14.9-39.33 0.24-13.44 6.24-26.06 15.65-35.56 10.49-9.2 22.42-14.13 36.4-13.99zm-26.37 23.86c-3.64 3.53-6.21 7.23-8.42 11.78q-0.5 0.97-1.01 1.97c-3.57 8.11-3.46 18.14-0.9 26.56 4.07 10.28 11.15 17.87 21.08 22.65 2.94 1.13 5.83 1.85 8.9 2.56q0.01-1.02 0.02-2.08 0.06-3.88 0.15-7.76 0.03-1.67 0.05-3.33c0.1-9.34 1.22-16.91 7.8-23.92 5.36-4.71 10.61-6.27 17.61-6.47q0.79-0.03 1.6-0.05 2.53-0.08 5.05-0.15 1.72-0.05 3.44-0.11 4.19-0.12 8.39-0.24-0.73-2.49-1.47-4.98-0.4-1.37-0.82-2.79c-2.97-8.63-9.85-15.73-17.86-19.85-15.46-7.07-30.57-4.83-43.61 6.21zm36.59 38.35c-4.89 6.62-4.41 14.13-4.26 22.01q0.02 1.69 0.03 3.38 0.05 4.1 0.12 8.2c6.18 2.7 11.62 4.57 18.45 4.01 3.4-1.44 4.86-3.1 6.42-6.42q0.53-2.03 1.05-4.06c0.79-2.86 1.39-4.42 3.91-6.06 1.11-0.55 1.11-0.55 2.25-1.11-0.56-2.7-1.6-5.01-2.75-7.52-2.31-5.4-3.09-10.72-3.66-16.54-11.42-0.51-11.42-0.51-21.56 4.11zm-58.65 54.44q-0.66 0.65-1.34 1.32c-12.03 12.8-17.1 32.49-20.16 49.31q-0.15 0.81-0.3 1.64c-0.65 3.83-0.65 7.1-0.65 11.09 17.73 0 35.46 0 53.73 0 1.06-3.17 2.12-6.35 3.21-9.62q1.3-2.81 2.81-5.52c0.68-1.23 0.68-1.23 1.38-2.5 1.46-2.47 3.01-4.84 4.63-7.22q-0.76-1.1-1.55-2.22-1-1.45-2.01-2.89-0.5-0.73-1.02-1.47c-2.6-3.74-3.81-5.64-3.44-10.26 0.9-1.86 0.9-1.86 2.41-3.21 2.72-0.89 4.14-1.11 6.76 0.09 2.52 1.85 3.79 3.8 5.47 6.42 7.52 11.31 17.62 18.32 30.28 23.16q2.39 0.48 4.81 0.81 0.13-1.07 0.27-2.18c0.77-5.9 1.8-11.45 3.74-17.07q-0.98-0.47-1.99-0.94-1.29-0.63-2.62-1.27-1.28-0.61-2.6-1.24c-2.31-1.31-3.79-2.68-5.62-4.57q-0.79 0-1.61 0-0.29-0.67-0.59-1.35c-1.21-2.23-2.69-3.99-4.32-5.92-3.12-3.75-6.03-7.6-8.86-11.58-6.54-8.98-14.38-13.94-25.3-16.06-14.27-1.87-25.63 3.23-35.52 13.25zm149.99 24.06c-4.47 4.96-5.6 9.93-5.28 16.52 0.86 5.06 2.98 8.91 7 12.13 2.55 1.84 2.55 1.84 5.49 2.63 0-11.64 0-23.29 0-35.29-2.59 0-5.3 2.48-7.21 4.01zm-48.75 12.98c-2.18 3.23-2.78 5.34-2.69 9.28q0.03 1.18 0.05 2.39 0.03 0.9 0.05 1.82c9.89-0.3 19.24-1.7 28.08-6.42-1.76-6.18-1.76-6.18-5.62-11.22-7.78-4.11-14.41-2.66-19.87 4.15zm-187.86-5.76c0 4.24 0 8.47 0 12.83 6.35 0 12.71 0 19.25 0 0-4.23 0-8.47 0-12.83-6.35 0-12.7 0-19.25 0zm139.56 17.65c-3.96 4.56-6.54 9.4-8.02 15.24q1.14 0.33 2.32 0.67c12.78 3.9 21.99 9.88 28.55 21.75 5.9 11.88 4.53 25.91 4.47 38.83q-0.01 2.3-0.01 4.6-0.02 5.57-0.04 11.14 0.8 0.3 1.63 0.61c7.17 2.76 12.19 5.93 15.46 13.11 0.57 1.56 0.99 3.11 1.35 4.73 3.19-1.03 4.22-2.95 5.75-5.73 2.86-6.37 1.41-13.24-0.11-19.77q-0.25-1.11-0.51-2.26-0.83-3.68-1.68-7.35-0.59-2.56-1.17-5.13-1.23-5.36-2.46-10.72-1.59-6.87-3.14-13.74-1.21-5.29-2.42-10.58-0.59-2.53-1.16-5.07-0.8-3.54-1.63-7.07c-0.23-1.05-0.23-1.05-0.47-2.12q-0.23-0.95-0.46-1.94c-0.19-0.83-0.19-0.83-0.39-1.68-0.7-1.8-1.48-2.68-2.98-3.89-1.93-0.53-3.8-0.96-5.76-1.35-4.97-1.12-9.4-2.71-13.94-5.02q-0.77-0.38-1.56-0.78c-2.64-1.39-5.07-2.92-7.48-4.68-2.24-1.96-2.24-1.96-4.14-1.8zm72.98 9.92c-8 3.11-15.52 4-24.06 4.51 0.5 4.53 1.29 8.86 2.37 13.29q0.23 0.98 0.47 1.98 0.51 2.12 1.02 4.23 0.81 3.37 1.61 6.74 2.26 9.57 4.57 19.13 1.41 5.87 2.79 11.74 0.53 2.22 1.07 4.44c3.6 14.77 4.59 27.12-2.67 41.12 3.34 0.23 6.68 0.37 10.03 0.5q1.4 0.1 2.85 0.2c5.34 0.18 5.34 0.18 9.91-2.27 1.68-2.07 3.09-4.18 4.48-6.46q1.28-1.83 2.57-3.66 1.23-1.82 2.44-3.65c3.83-5.69 7.8-11.22 12.01-16.62q0.56-0.72 1.14-1.47 0.49-0.63 0.99-1.28c1.16-1.78 1.88-3.36 2.51-5.4-0.39-2.02-0.39-2.02-1.35-4.05q-0.5-1.18-1.02-2.39-0.56-1.27-1.15-2.58-0.57-1.33-1.16-2.7-1.56-3.6-3.14-7.2-1.62-3.7-3.22-7.4-2.53-5.84-5.08-11.67-2.95-6.73-5.86-13.48c-3.68-8.83-3.68-8.83-7.7-17.5-2.38 0-4.22 1-6.42 1.9zm-148.37 17.35c-0.27 6.35-0.53 12.7-0.81 19.25 4.28 0.03 4.28 0.03 8.64 0.06q4.18 0.05 8.35 0.1 2.89 0.04 5.78 0.05 4.16 0.03 8.33 0.1c1.27 0 1.27 0 2.57 0 9.07 0.18 16.76 2.86 23.28 9.31 6.44 7.71 7.58 15.5 7.77 25.31 0.08 3.3 0.16 6.59 0.25 9.98 8.47 0 16.94 0 25.66 0q0.06-6.55 0.09-13.09 0.01-2.22 0.04-4.44c0.49-20.07 0.49-20.07-8.7-37.26-8.15-7.61-18.74-9.48-29.54-9.47q-0.84 0-1.71 0-2.76 0.01-5.52 0.02-1.92 0-3.85 0-5.05 0.01-10.1 0.02-5.16 0.01-10.32 0.02-10.11 0.01-20.21 0.04zm-48.28 41.55c-10.54 12.9-15.09 32.06-15.09 48.28 39.7 0 79.41 0 120.31 0-1.32-2.92-2.65-5.83-4.01-8.83-0.8-3.22-0.95-6.15-1-9.43q-0.04-1.86-0.08-3.72-0.06-2.91-0.1-5.83-0.05-2.82-0.12-5.64c-0.01-0.86-0.01-0.86-0.02-1.73-0.16-6.55-1.37-12.54-6.26-17.29-5.57-4.82-10.42-5.38-17.67-5.4q-0.87 0-1.76-0.01-2.87-0.01-5.73-0.01-2.01 0-4.02-0.01-4.2 0-8.41 0-5.36 0-10.72-0.03-4.14-0.01-8.29-0.01-1.98 0-3.95-0.01c-12.38-0.05-23.83 0.35-33.08 9.67zm235.06 28.38c-0.83 1.42-0.83 1.42-0.71 3.05q1.12-0.28 2.27-0.58c8.74-2.03 16.35-2.58 24.55 1.89 5.4 3.6 8.89 8.56 10.88 14.73 1.58 8.55 0.54 15.72-4.2 23.05-3.53 4.52-8.56 7.97-14.25 9.04-7.21 0.6-13.71 0.7-20.05-3.21q-1.26-0.67-2.56-1.36c-4.61-3.79-6.8-8.28-8.67-13.88-4.24 0-8.47 0-12.83 0 3.03 11.39 8.21 20.24 18.29 26.67 9.19 5.13 19.1 6.03 29.41 4.08 10.44-3.13 18.97-10.42 24.25-19.86 4.51-9.02 5.08-20.07 2.19-29.74-4.31-10.95-12.41-18.75-22.93-23.66-1.82-0.7-3.6-1.16-5.5-1.6q-1.28-0.4-2.61-0.8c-9.93-2.11-13.04 4.48-17.53 12.18zm-121.02 7.06c2.55 5.29 5.69 8.79 10.93 11.53 5.44 1.43 10.71 1.43 16.29 1.41q1.27 0 2.58 0c4.32 0 8.45-0.14 12.71-0.91-0.33-4.21-0.86-6.71-4.01-9.62-4.85-2.21-8.77-2.74-14.06-2.64q-1.05 0-2.13 0.01-3.33 0.02-6.67 0.07-2.27 0.02-4.55 0.04-5.54 0.04-11.09 0.11zm124.32 10.43q-0.79 1.18-1.6 2.41c1.43 0.04 1.43 0.04 2.89 0.09q1.89 0.08 3.77 0.16c0.95 0.02 0.95 0.02 1.91 0.05 0.91 0.04 0.91 0.04 1.84 0.09 0.84 0.03 0.84 0.03 1.7 0.06 1.95 0.44 2.69 1.21 3.93 2.75 0.32 1.56 0.32 1.56 0.3 3.21q0.01 0.82 0.02 1.66c-0.42 2.02-1.14 2.66-2.73 3.96-1.52 0.34-1.52 0.34-3.22 0.41-0.91 0.04-0.91 0.04-1.84 0.08q-0.94 0.03-1.91 0.06c-0.96 0.04-0.96 0.04-1.93 0.08q-2.37 0.1-4.73 0.17c2.62 3.56 2.62 3.56 6.41 5.61 3.94 0.56 7.13 0.43 10.73-1.3 2.97-2.69 4.82-5.2 6.07-9.02 0.07-3.9-0.84-7.29-3.54-10.2-3.84-3.26-6.31-3.81-11.21-3.77-2.95 0.33-4.66 1.51-6.86 3.44zm-227.78 15.24c3.03 11.39 8.21 20.24 18.3 26.67 9.19 5.13 19.1 6.03 29.4 4.08 10.44-3.13 18.87-10.4 24.25-19.76 1.69-3.55 2.56-7.16 3.44-10.99-4.23 0-8.47 0-12.83 0q-0.62 1.58-1.25 3.21c-3.33 7.37-8.09 11.5-15.59 14.43-6.45 2.01-13.41 1.24-19.57-1.29-7.05-3.76-10.83-8.87-13.32-16.35-4.23 0-8.47 0-12.83 0zm27.27 0c3.41 4.47 3.41 4.47 8.31 5.88 4.61 0.07 7.33-0.32 10.94-3.48q0.79-1.18 1.6-2.4c-6.88 0-13.76 0-20.85 0z"/>
	</g>
</svg>