<svg version="1.2" xmlns="http://www.w3.org/2000/svg" viewBox="0 0 512 512" width="512" height="512">
	<style>
		.s0 { fill: #ffffff } 
		.s1 { fill: #127c5c } 
		.s2 { fill: #004e9d } 
	</style>
	<path id="Shape 1" fill-rule="evenodd" class="s0" d="m512 0v512h-517v-512z"/>
	<g id="Layer 1">
		<path class="s1" d="m265.36 38.66q3.43 1.97 6.85 3.97c14.57 8.33 27.38 9.9 44.01 9.4q1.17-0.04 2.38-0.07 2.2-0.07 4.41-0.21c4.63-0.21 7.04 0.5 10.72 3.58 1.58 1.65 3.03 3.28 4.46 5.04q0.6 0.72 1.21 1.46 5.1 6.21 9.97 12.6c3.89 5.04 7.35 8.57 13.18 11.28q0.79 0.37 1.6 0.76 2.53 1.18 5.06 2.35c18.9 8.79 18.9 8.79 22.06 13.74 0.71 2.05 0.71 2.05 1.26 4.33q0.31 1.26 0.62 2.56 0.32 1.34 0.65 2.72 0.34 1.38 0.69 2.8c1.01 4.09 1.97 8.16 2.64 12.32 1.64 9.67 5.9 15.27 12.37 22.49 2.55 2.9 4.92 5.92 7.27 8.98q0.64 0.8 1.31 1.63c3.31 4.31 5.21 8.89 4.85 14.43-0.33 1.85-0.75 3.65-1.22 5.47q-0.23 0.98-0.47 2-0.74 3.13-1.52 6.25-0.76 3.14-1.51 6.28-0.46 1.94-0.94 3.88c-1.47 6.09-1.25 11.28 0.19 17.41 0.2 0.85 0.2 0.85 0.4 1.72q0.63 2.69 1.27 5.39 0.63 2.69 1.26 5.39 0.57 2.44 1.15 4.89c1.39 6.51 1.83 10.74-1.07 16.77-1.54 2.37-3.3 4.48-5.15 6.6q-2.14 2.51-4.25 5.05c-1.33 1.58-2.69 3.09-4.1 4.61-7.27 8.15-9.4 16.1-11.35 26.68q-0.66 3.38-1.36 6.76-0.42 2.08-0.8 4.17c-1.22 6.18-3.78 10.36-9.06 13.97-2.14 1.21-4.34 2.28-6.56 3.34q-0.92 0.45-1.87 0.91-1.95 0.95-3.91 1.88-2.99 1.44-5.98 2.9-1.9 0.91-3.8 1.83-0.89 0.43-1.81 0.88c-4.21 2-4.21 2-6.12 2q-0.35 0.75-0.72 1.53c-0.98 1.86-2.04 3.33-3.37 4.95-0.7 0.84-0.7 0.84-1.4 1.71-0.74 0.89-0.74 0.89-1.49 1.8q-1.52 1.84-3.04 3.69-0.73 0.89-1.49 1.81c-2.3 2.82-4.55 5.68-6.8 8.54q-0.71 0.86-1.45 1.74-0.75 0.9-1.52 1.83c-4.46 3.73-9.8 3.48-15.28 3.22-20.17-0.54-34.67 1.94-52 12.47-5.35 2.96-9.49 3.68-15.36 2.23-3.36-1.3-6.55-2.88-9.76-4.51q-3.77-1.87-7.55-3.72-2.31-1.15-4.54-2.47c-7.88-4.33-16.37-3.63-25.11-3.58q-3.57 0.01-7.13-0.02-2.21-0.01-4.41 0.01c-5.7-0.03-10.53-0.97-14.99-4.78q-0.94-1.11-1.92-2.24c-1.07-1.25-1.07-1.25-2.17-2.52-3.63-4.41-7.15-8.9-10.63-13.42-1.14-1.45-2.32-2.83-3.52-4.23-1.87-2.32-1.87-2.32-1.87-4.04q-1.08-0.34-2.19-0.68c-4.98-1.74-9.69-4.07-14.44-6.34q-1.83-0.87-3.67-1.71c-14.51-6.72-14.51-6.72-17.7-14.5q-0.32-1.38-0.65-2.8-0.2-0.79-0.4-1.61c-0.91-3.69-1.59-7.4-2.25-11.14-2.36-12.73-5.71-20.78-14.75-30.07-2.28-2.4-4.34-4.96-6.37-7.58q-0.99-1.21-2-2.47c-4-6.29-4.67-10.85-3.11-18.16q0.32-1.36 0.65-2.77 0.31-1.42 0.63-2.88c1.24-5.67 2.55-11.34 4-16.96 0.98-5.39 0.16-10.15-1.15-15.36q-0.48-2.03-0.96-4.07-0.76-3.15-1.54-6.31-0.75-3.07-1.47-6.15-0.24-0.93-0.48-1.88c-1.33-5.78-0.58-10.79 2.52-15.87q1.01-1.23 2.05-2.5 0.55-0.68 1.11-1.38 1.87-2.3 3.77-4.57 2.24-2.69 4.47-5.39 1.46-1.76 2.93-3.51 0.68-0.81 1.37-1.64 0.6-0.71 1.21-1.44c2.99-4.47 4.29-9.37 5.43-14.57q0.44-1.93 0.88-3.86 0.67-3 1.33-6.01 0.66-2.93 1.33-5.85 0.19-0.89 0.39-1.8c1.36-5.95 3.02-9.98 8.14-13.47q2.25-1.27 4.57-2.41 1.3-0.64 2.63-1.3 1.35-0.66 2.73-1.34 1.31-0.64 2.66-1.31 1.31-0.64 2.66-1.31 1.31-0.65 2.67-1.32 2.73-1.33 5.49-2.6c5.23-2.45 8.94-4.53 12.18-9.34q1.15-1.58 2.31-3.16 0.59-0.82 1.2-1.66c2.28-3.12 4.7-6.13 7.12-9.14 0.67-0.87 0.67-0.87 1.37-1.75q0.65-0.82 1.33-1.66 0.56-0.72 1.15-1.46c3.16-3.16 5.84-5.09 10.37-5.22q2.17 0.05 4.35 0.13 2.41 0.04 4.82 0.07c1.25 0.02 1.25 0.02 2.53 0.04 15.11 0.18 26.68-0.35 39.49-9.06 2.52-1.69 5.12-3.01 7.85-4.33q1.11-0.59 2.26-1.19c6.42-1.83 11.74-1.82 17.71 1.43zm-99.66 88.67c-19.35 22.2-29.89 49.71-29.8 79.14q0 0.93 0 1.89c0.03 10.3 0.9 19.96 3.75 29.89q0.26 0.95 0.53 1.94c8.29 29.8 29.28 55.95 56.13 71.15 29.49 16.06 62.26 19.74 94.59 10.48 7.89-2.4 15.04-5.73 22.22-9.72 1.41-0.76 1.41-0.76 2.84-1.53 5.84-3.26 10.99-7 16.06-11.35q1.04-0.88 2.11-1.79c18.11-15.81 30.99-35.99 37.39-59.18q0.27-0.94 0.55-1.9c5.31-19.06 4.9-41.84-0.55-60.79q-0.23-0.85-0.47-1.72c-8.48-30.11-29.45-55.52-56.21-71.28-49.7-27.22-110.92-17.39-149.14 24.77z"/>
		<path class="s2" d="m322.57 122.31c21.65 18.17 36.12 42.13 39.5 70.42 0.27 4.3 0.33 8.58 0.33 12.88q0 0.87-0.01 1.77c-0.1 28.62-10.81 53.05-30.37 73.8q-0.85 0.95-1.73 1.93c-17.35 18.57-44.33 29.11-69.41 30.09-29.13 0.67-56.52-8.25-78.01-28.38q-0.98-0.95-2-1.92-0.95-0.88-1.94-1.78c-13.64-12.9-22.29-30.12-27.25-48.03q-0.44-1.52-0.89-3.09c-6.43-27.31-0.89-57.37 13.77-81.07 16.68-24.72 40.68-42.03 70.01-48.06 30.81-5.77 63.6 1.37 88 21.44zm-37.71 50.39q-0.99 1-2.02 2.03c-1.14 1.14-1.14 1.14-2.29 2.29q-1.24 1.26-2.48 2.51-1.27 1.27-2.53 2.54-3.34 3.35-6.67 6.71-3.4 3.42-6.81 6.84-6.68 6.71-13.34 13.43c-3-1.15-5.24-2.28-7.7-4.37q-0.92-0.77-1.87-1.56-0.95-0.81-1.92-1.64c-6.47-5.55-6.47-5.55-13.42-10.47-3.52 1.18-4.97 3.64-7.14 6.5q-0.62 0.81-1.27 1.64-1.81 2.37-3.61 4.75-0.87 1.14-1.76 2.32-1.71 2.27-3.39 4.55c3.34 3.48 6.91 6.53 10.68 9.55q0.89 0.72 1.82 1.47 2.76 2.22 5.53 4.43c0.84 0.67 0.84 0.67 1.69 1.36q5.12 4.1 10.33 8.09 1.07 0.85 2.17 1.73c4.01 3 7.02 3.99 12.04 3.94 5.01-1.23 8.66-5.11 12.18-8.68q0.69-0.69 1.4-1.4 2.26-2.26 4.52-4.54 1.58-1.58 3.15-3.16 4.14-4.15 8.26-8.3 4.22-4.25 8.45-8.48 8.27-8.31 16.54-16.62c-1.39-2.92-2.92-4.86-5.21-7.16q-1.02-1.02-2.07-2.08-1.07-1.05-2.17-2.14-1.07-1.08-2.17-2.19-1.02-1.02-2.07-2.07-0.94-0.93-1.9-1.89c-2.21-1.9-2.76-1.85-4.95 0.07z"/>
		<path class="s2" d="m380.97 334.43c1.07 1.41 1.07 1.41 2 3.28q0.54 1.05 1.09 2.14 0.56 1.16 1.15 2.36c0.61 1.23 0.61 1.23 1.24 2.48q2.03 4.06 4.03 8.14 1.4 2.82 2.81 5.64 3.7 7.43 7.37 14.88 3.01 6.08 6.03 12.15 6.25 12.53 12.45 25.08 0.58 1.16 1.17 2.36 0.52 1.06 1.06 2.15 0.45 0.92 0.92 1.87c1.97 4.25 2.44 8.46 1.03 12.93-1.86 4.12-3.91 6.32-8 8.45-2.56 0.81-4.78 0.93-7.46 0.84q-1.19-0.03-2.41-0.06c-1.28-0.04-1.28-0.04-2.59-0.07q-4.16-0.05-8.33-0.08-2.87-0.04-5.73-0.14c-11.39-0.84-11.39-0.84-21.3 3.65-2.15 2.47-3.8 5.17-5.38 8.03-1.35 2.35-3.01 4.42-4.68 6.54q-2.59 3.43-5.16 6.86c-7.54 9.98-7.54 9.98-11.67 11.36q-2.25 0.21-4.51 0.27-1.17 0.04-2.38 0.09c-3.4-0.48-5.93-1.66-8.57-3.8-1.83-2.45-3.1-5.13-4.41-7.88q-0.64-1.26-1.29-2.56-1.47-2.94-2.92-5.9-2.84-5.72-5.75-11.41-5.16-10.14-10.26-20.32-2.98-5.93-5.98-11.86-2.95-5.81-5.87-11.64-1.11-2.2-2.22-4.4-1.55-3.04-3.07-6.1c-0.46-0.9-0.46-0.9-0.93-1.81-1.99-4.05-1.99-4.05-1.83-6.6 1.82-3.51 6.56-4.85 10.11-6.08 5.85-1.57 12.15-1.14 18.15-1.07 16.83 0.57 16.83 0.57 31.68-6.25 5.03-5 9.42-10.59 13.76-16.19q0.63-0.8 1.27-1.63 1.19-1.54 2.37-3.1c3.83-5 8.04-7.93 13.61-10.72q0.79-0.42 1.6-0.85c2.95-1.49 4.69-2.34 7.8-1.03z"/>
		<path class="s2" d="m131.07 333.57c7.28 0.76 15.95 5.87 20.82 11.27q1.64 2.07 3.22 4.19 1.13 1.45 2.27 2.89 1.84 2.34 3.68 4.69c7.15 9.13 12.34 15.07 24.11 17.32 2.53 0.2 5.04 0.18 7.57 0.15q2.18 0 4.35 0.01 3.37 0.01 6.73-0.03c10.51-0.11 17.87 1.02 26.86 6.74-0.49 2.92-1.21 5.33-2.53 7.98q-0.52 1.05-1.06 2.14-0.57 1.14-1.16 2.32-0.6 1.22-1.22 2.47-2.01 4.03-4.02 8.06-1.4 2.81-2.8 5.62-2.93 5.88-5.87 11.75-3.77 7.53-7.51 15.07-2.88 5.79-5.78 11.58-1.39 2.78-2.77 5.56-1.93 3.88-3.88 7.76-0.56 1.14-1.14 2.32c-2.55 5.02-5.31 9.86-10.92 11.84-2.2 0.29-2.2 0.29-4.57 0.32q-1.16 0.04-2.35 0.07c-5.15-0.8-8.24-3.17-11.34-7.19q-1.44-2.01-2.84-4.05-2.18-3.11-4.44-6.16c-1.56-2.2-2.92-4.39-4.29-6.71-4.66-7.59-4.66-7.59-11.95-12.31-6.19-1.16-12.4-0.77-18.66-0.42q-4.18 0.13-8.37 0.21-2.58 0.06-5.16 0.19c-5.24 0.22-8.88-0.33-13.63-2.6-3.5-3.5-4.99-6.75-5.42-11.66 0.06-4.54 1.87-7.95 3.91-11.93 0.62-1.25 0.62-1.25 1.25-2.52q1.83-3.7 3.69-7.38 2.4-4.79 4.77-9.59 6.09-12.25 12.22-24.48 2.34-4.69 4.68-9.38 2.26-4.53 4.53-9.05 1.08-2.15 2.15-4.31 1.49-2.98 2.98-5.96 0.45-0.88 0.9-1.79c2.03-4.04 2.03-4.04 2.99-5z"/>
	</g>
</svg>