<svg xmlns="http://www.w3.org/2000/svg" width="1600" height="640" viewBox="0 0 1600 640" fill="none">
    <defs>
        <linearGradient id="background" x1="120" y1="20" x2="1530" y2="640" gradientUnits="userSpaceOnUse">
            <stop stop-color="#EFF8FC"/>
            <stop offset=".56" stop-color="#CDE8F3"/>
            <stop offset="1" stop-color="#A7D7CE"/>
        </linearGradient>
        <linearGradient id="bag" x1="1120" y1="180" x2="1440" y2="530" gradientUnits="userSpaceOnUse">
            <stop stop-color="#1A8C59"/>
            <stop offset="1" stop-color="#0B5F39"/>
        </linearGradient>
        <filter id="shadow" x="-40%" y="-30%" width="180%" height="180%">
            <feDropShadow dx="0" dy="25" stdDeviation="24" flood-color="#164E65" flood-opacity=".22"/>
        </filter>
        <pattern id="lines" width="38" height="38" patternUnits="userSpaceOnUse" patternTransform="rotate(32)">
            <line x1="0" y1="0" x2="0" y2="38" stroke="#2674A8" stroke-opacity=".1" stroke-width="8"/>
        </pattern>
    </defs>
    <rect width="1600" height="640" fill="url(#background)"/>
    <rect width="760" height="640" fill="url(#lines)"/>
    <circle cx="1300" cy="315" r="270" fill="#FFF" fill-opacity=".38"/>
    <circle cx="1300" cy="315" r="218" stroke="#2674A8" stroke-opacity=".17" stroke-width="2" stroke-dasharray="8 15"/>
    <g filter="url(#shadow)">
        <path d="M1095 269C1095 244 1115 224 1140 224H1440C1465 224 1485 244 1485 269V502C1485 527 1465 547 1440 547H1140C1115 547 1095 527 1095 502V269Z" fill="url(#bag)"/>
        <path d="M1182 232C1182 172 1231 123 1291 123C1351 123 1400 172 1400 232" stroke="#0B5F39" stroke-width="30" stroke-linecap="round"/>
        <circle cx="1290" cy="379" r="84" fill="#FFF"/>
        <rect x="1267" y="326" width="46" height="106" rx="13" fill="#EF8B2C"/>
        <rect x="1237" y="356" width="106" height="46" rx="13" fill="#EF8B2C"/>
    </g>
    <path d="M1017 235C1055 200 1100 179 1149 172" stroke="#2674A8" stroke-opacity=".42" stroke-width="12" stroke-linecap="round"/>
    <path d="M964 315C1007 279 1053 257 1100 250" stroke="#2674A8" stroke-opacity=".27" stroke-width="8" stroke-linecap="round"/>
    <circle cx="1512" cy="142" r="48" fill="#EF8B2C" fill-opacity=".72"/>
    <circle cx="1045" cy="126" r="28" fill="#16834F" fill-opacity=".3"/>
    <path d="M914 585C1116 516 1308 548 1600 485V640H914V585Z" fill="#2674A8" fill-opacity=".1"/>
</svg>
