<svg version="1.2" xmlns="http://www.w3.org/2000/svg" viewBox="0 0 512 512" width="512" height="512">
	<style>
		.s0 { fill: #ffffff } 
		.s1 { fill: #393a52 } 
		.s2 { fill: #417cb7 } 
		.s3 { fill: #393a53 } 
	</style>
	<path id="Shape 1" fill-rule="evenodd" class="s0" d="m522-14.63v541.3h-534v-541.3z"/>
	<g id="Layer 1">
		<path class="s1" d="m248.95 64.09c11.68 8.98 17.63 20.96 19.74 35.38q0.15 1.16 0.3 2.34 0.14 1.06 0.27 2.15c1.24 11.44 0.3 22.56-1.07 33.93q1.14 0.36 2.31 0.73c2.39 0.83 3.41 1.31 4.9 3.28 3.37 10.08-0.29 23.94-4.55 33.32-1.91 3.53-3.81 5.49-7.56 6.9q-1.14 0.72-2.32 1.46c-0.67 2.65-0.67 2.65-0.55 5.67-0.26 11.22-0.26 11.22-3.62 15.65-3.75 5.08-3.55 9.81-3.49 15.96 0.09 12.69 0.09 12.69-3.56 17.24-2.04 2-4.25 3.68-6.56 5.36q-0.94 0.7-1.91 1.43-1.97 1.48-3.95 2.95-3.95 2.92-7.85 5.9-1.8 1.37-3.6 2.73c-0.81 0.61-0.81 0.61-1.63 1.23q-0.71 0.53-1.44 1.08c-1.23 0.94-1.23 0.94-1.92 2.57q0.84 0.29 1.7 0.6c6.41 2.78 6.41 2.78 7.92 5.81 0.57 5.03-1.57 8.71-3.83 13.05-1.63 3.55-1.94 5.74-0.8 9.51q0.35 1.16 0.7 2.35c0.36 1.16 0.36 1.16 0.72 2.35 3.76 12.19 5.59 23.27 5.82 36.02q0.06 2.24 0.12 4.48 0.11 3.61 0.2 7.22c0.26 9.79 0.7 19.56 1.12 29.34 0.05 1.3 0.05 1.3 0.11 2.62q0.32 7.46 0.65 14.91c0.14-0.67 0.14-0.67 0.29-1.35q3.45-16.38 6.95-32.75 1.69-7.91 3.36-15.84 1.61-7.66 3.26-15.31 0.62-2.9 1.22-5.81c2.1-10.03 4.34-19.56 8.6-28.92 2.63-5.92 3.09-11.8 3.33-18.21q0.05-1.18 0.1-2.39c0.26-7.92-0.08-15.78-0.45-23.68-0.27-5.9-0.28-11.78-0.2-17.67 1.41-0.55 1.41-0.55 3.2-0.81 1.47 0.93 1.47 0.93 3.06 2.36 18.22 14.72 44.4 18.97 66.58 24.53q1.26 0.32 2.56 0.64 2.39 0.61 4.77 1.19c14 3.53 14 3.53 17.68 8.16q0.66 0.79 1.33 1.6c1.04 1.63 1.49 2.93 1.83 4.81-3.41 2.51-6.33 2.75-10.43 2.73q-0.91 0.02-1.85 0.03-3.89 0.05-7.78 0.06-2.85 0.02-5.7 0.06-0.87 0-1.77 0c-2.48 0.03-4.26 0.17-6.44 1.38-2.07 2.15-3.17 4.79-4.41 7.47-7.54 15.59-19.19 28.86-35.76 35q-3.8 1.16-7.63 2.18c-2.45 0.73-4.82 1.52-7.22 2.4-9.16 18.32 3.91 58.43 9.95 76.6 0.4 1.23 0.4 1.23 0.81 2.48q0.37 1.07 0.74 2.17c0.6 2.41 0.71 4.45 0.53 6.93-2.31 3.7-2.31 3.7-4.66 4.51-2 0.35-3.93 0.47-5.95 0.54q-1.26 0.05-2.56 0.1-1.37 0.05-2.78 0.09-1.43 0.05-2.9 0.11-3.9 0.14-7.8 0.26-2.43 0.08-4.85 0.16c-18.1 0.6-36.18 0.92-54.28 0.65q-0.88-0.01-1.78-0.03c-30.81-0.41-61.6-2.29-92.27-5.18q-1.29-0.13-2.62-0.25-13.63-1.28-27.22-2.94-1.12-0.12-2.27-0.26c-6.49-0.83-12.85-2.24-17.34-7.38-6.35-9.15-6.26-16.82-4.59-27.57 1.31-9.24 2.07-18.5 2.79-27.8q0.09-1.14 0.18-2.3 0.64-8.32 1.27-16.63 0.63-8.37 1.28-16.74 0.25-3.3 0.5-6.61c1.45-19.02 1.45-19.02 4.88-27.71q0.29-0.78 0.59-1.6c2.3-5.97 5.56-11.33 11.55-14.07 6.99-2.6 14.18-4.32 21.41-6.11 34.16-7.66 34.16-7.66 64.36-24.41 2.4-1.61 2.4-1.61 4.16-1.31q0.71 0.25 1.45 0.51-0.04 0.76-0.08 1.55c-0.49 10.86-0.83 21.73-0.91 32.61q-0.01 1.73-0.04 3.47c-0.16 10.52 1.18 20.01 5.61 29.62 2.52 6.11 3.97 12.53 5.31 18.98q0.26 1.21 0.52 2.44 0.55 2.6 1.1 5.2 0.87 4.11 1.74 8.22 1.85 8.7 3.68 17.4 2.14 10.13 4.29 20.25 0.86 4.06 1.71 8.11 0.53 2.47 1.05 4.94 0.24 1.12 0.48 2.29 0.22 1.02 0.44 2.07 0.19 0.89 0.38 1.81c0.25 1.38 0.25 1.38 1.17 2.17q0.04-1.29 0.08-2.61 0.38-12.24 0.78-24.49 0.21-6.29 0.4-12.58 0.19-6.08 0.39-12.16 0.07-2.31 0.14-4.62c0.3-9.86 0.75-19.38 3.63-28.89q0.38-1.28 0.77-2.59 0.79-2.63 1.59-5.26 0.37-1.27 0.75-2.57 0.34-1.13 0.69-2.3c0.95-5.09-1.8-9.27-4.05-13.67-1.59-3.24-2.42-5.7-1.96-9.31 2.69-3.43 5.89-5.14 9.62-7.22q0.39-0.79 0.8-1.6-0.7-0.33-1.43-0.68c-1.64-0.85-3.03-1.76-4.5-2.87q-0.76-0.58-1.55-1.17-0.81-0.61-1.64-1.24-0.84-0.64-1.7-1.29-2.61-1.98-5.21-3.97-0.81-0.62-1.65-1.25-2.29-1.75-4.56-3.51-0.69-0.52-1.39-1.06c-3.15-2.46-5.83-5.01-7.63-8.61q-0.07-2.12-0.03-4.23c0.06-13.64 0.06-13.64-7.19-24.63-3.77-6.83-3.33-14.89-3.21-22.45-1.06-0.27-1.06-0.27-2.15-0.55-3.39-1.35-5.77-3.11-7.33-6.52-0.57-1.67-1.04-3.35-1.49-5.05q-0.25-0.91-0.5-1.84c-5.28-19.7-5.28-19.7-1.89-26.73 1.34-1.8 1.34-1.8 3.74-3.4q1.19 0 2.41 0c-0.17-1.45-0.17-1.45-0.35-2.92-0.94-8.4-1.44-16.74-1.5-25.19q-0.02-1.32-0.05-2.68c0.01-9 1.78-17.67 6.71-25.33 3.81-3.63 6.02-4.1 11.22-4.01q-0.1-1.43-0.2-2.9c0.04-3.58 1.05-5.67 3.41-8.32q0.83-0.95 1.69-1.94c4.58-4.93 8.8-7.88 15.14-10.08q1.24-0.47 2.52-0.95c18.7-6.29 37.1-0.37 52.8 10.52z"/>
		<path class="s2" d="m345.86 292.46q1.1-0.01 2.23-0.02 3.68-0.03 7.35-0.05 1.25-0.01 2.53-0.01 6.62-0.03 13.25-0.05 6.85-0.02 13.71-0.09 5.26-0.04 10.52-0.04 2.52-0.01 5.05-0.04 3.53-0.03 7.07-0.02 1.04-0.02 2.11-0.04c4.73 0.05 4.73 0.05 7.21 2.41 1.23 2.14 2.31 4.27 3.32 6.52 6.23 12.66 15.71 21.95 29.16 26.85q4.12 1.29 8.29 2.42c2.13 0.79 2.13 0.79 3.73 3.2 2.2 25.32-4.06 54.29-15.23 76.96q-0.68 1.37-1.38 2.79c-11.38 22.02-30.04 37.99-53.64 45.61-9.32 2.9-16.5 3.66-25.95 0.9-1.1-0.32-1.1-0.32-2.23-0.65-6.9-2.1-13.16-4.99-19.41-8.57q-1.22-0.69-2.47-1.4c-5.35-3.23-9.87-7.11-14.37-11.43-0.9-0.82-0.9-0.82-1.82-1.67-23.55-22.27-31.87-58.54-32.83-89.87q-0.04-2.53-0.07-5.06-0.02-1.19-0.04-2.42 0-1.12 0-2.26-0.01-0.99-0.01-2.01c0.37-2.14 0.99-2.82 2.7-4.13 2.36-0.77 2.36-0.77 5.17-1.45 13.54-3.74 23.76-11.2 30.91-23.4q2.21-4.01 4.28-8.09c2.75-5.39 5.17-4.87 10.86-4.89zm-2.86 50.81c-9.11 9.85-14.26 22.23-14.11 35.71 1.17 13.59 6.93 24.91 16.66 34.38 9.71 8.01 22.1 12.05 34.62 11.48 14.22-1.67 25.69-8.26 34.72-19.19 7.86-10.69 10.32-23.06 8.82-36.08-2.36-13.3-9.85-24.27-20.77-32.15-19.35-11.99-43.19-9.74-59.94 5.85z"/>
		<path class="s3" d="m393.83 349.3c3.17 0.28 4.5 1.14 6.99 3.08 1.06 0.8 1.06 0.8 2.15 1.61 1.5 1.95 1.5 1.95 1.61 4.57-1.15 3.8-3 6.42-5.37 9.56q-1.33 1.82-2.66 3.65-0.64 0.87-1.31 1.78c-1.51 2.07-2.94 4.2-4.35 6.34q-4.27 6.46-8.61 12.88-0.66 0.98-1.33 1.99c-2.34 3.44-4.67 6.46-7.74 9.28-3.82-1.09-6.9-2.76-10.16-4.98q-0.73-0.49-1.49-0.99-1.54-1.04-3.07-2.08-2.35-1.6-4.72-3.16-1.5-1.02-3-2.03-0.7-0.47-1.43-0.95c-1.86-1.29-3.21-2.24-4.16-4.33-0.05-2.5 1.26-4 2.63-6.03q0.76-1.15 1.54-2.33c1.41-1.98 1.41-1.98 3.01-3.58 4.24 0.13 6.92 2.02 10.18 4.51 1.66 1.26 3.28 2.39 5.06 3.51 2.9-0.97 3.29-1.79 4.96-4.29q0.73-1.09 1.48-2.21 0.78-1.17 1.57-2.37 1.62-2.41 3.24-4.83 0.8-1.19 1.62-2.42 3.3-4.92 6.67-9.79 0.54-0.8 1.11-1.62c3.09-4.51 3.09-4.51 5.58-4.77z"/>
	</g>
</svg>